ffmpeg started on 2025-06-07 at 15:29:52
Report written to "D:\Convert\FFMetrics\reports\ssim_report-6.txt"
Log level: 32
Command line:
ffmpeg -hide_banner -nostdin -i "G:\\\xc0\xed\xe8\xec\xe5\\\xce\xed\xe3\xee\xe8\xed\xe3\xe8\\!_36_\xce\xf1\xe5\xed\xfc_2024\\DreamCast\\\xd1\xee\xe1\xeb\xe0\xe7\xed 2,5-\xec\xe5\xf0\xed\xee\xe3\xee \xe8\xe7\xec\xe5\xf0\xe5\xed\xe8\xff\\[DC] 2-5 Jigen no Ririsa - 15_Telegram_HEVC.mkv" -i "G:\\\xc0\xed\xe8\xec\xe5\\\xce\xed\xe3\xee\xe8\xed\xe3\xe8\\!_36_\xce\xf1\xe5\xed\xfc_2024\\DreamCast\\\xd1\xee\xe1\xeb\xe0\xe7\xed 2,5-\xec\xe5\xf0\xed\xee\xe3\xee \xe8\xe7\xec\xe5\xf0\xe5\xed\xe8\xff\\[DC] 2-5 Jigen no Ririsa - 15_Telegram.mp4" -lavfi "[0:v]settb=AVTB,setpts=PTS-STARTPTS,format=pix_fmts=yuv420p10,fps=24/1,scale=1920:1080:flags=bicubic[main];[1:v]settb=AVTB,setpts=PTS-STARTPTS,format=pix_fmts=yuv420p,fps=24/1,scale=1920:1080:flags=bicubic[ref];[main][ref]ssim=eof_action=endall:stats_file='D\\:/Convert/FFMetrics/logs/ssim_logfile-6.txt'" -f null -
Input #0, matroska,webm, from 'G:\Аниме\Онгоинги\!_36_Осень_2024\DreamCast\Соблазн 2,5-мерного измерения\[DC] 2-5 Jigen no Ririsa - 15_Telegram_HEVC.mkv':
  Metadata:
    COMPATIBLE_BRANDS: isomiso2avc1mp41
    MAJOR_BRAND     : isom
    MINOR_VERSION   : 512
    ENCODER         : Lavf61.7.100
  Duration: 00:24:09.13, start: -0.021000, bitrate: 1214 kb/s
  Stream #0:0: Video: hevc (Main 10), yuv420p10le(tv, bt709, progressive), 1920x1080 [SAR 1:1 DAR 16:9], 24 fps, 24 tbr, 1k tbn (default)
      Metadata:
        HANDLER_NAME    : VideoHandler
        VENDOR_ID       : [0][0][0][0]
        ENCODER         : Lavc61.19.100 libx265
        BPS             : 1017847
        DURATION        : 00:24:08.999666666
        NUMBER_OF_FRAMES: 34776
        NUMBER_OF_BYTES : 184357540
        _STATISTICS_WRITING_APP: mkvpropedit v66.0.0 ('Josie') 64-bit
        _STATISTICS_WRITING_DATE_UTC: 2025-06-04 12:16:17
        _STATISTICS_TAGS: BPS DURATION NUMBER_OF_FRAMES NUMBER_OF_BYTES
  Stream #0:1: Audio: aac (LC), 48000 Hz, stereo, fltp (default)
      Metadata:
        HANDLER_NAME    : SoundHandler
        VENDOR_ID       : [0][0][0][0]
        ENCODER         : Lavc61.19.100 aac
        BPS             : 193036
        DURATION        : 00:24:09.130000000
        NUMBER_OF_FRAMES: 67929
        NUMBER_OF_BYTES : 34966871
        _STATISTICS_WRITING_APP: mkvpropedit v66.0.0 ('Josie') 64-bit
        _STATISTICS_WRITING_DATE_UTC: 2025-06-04 12:16:17
        _STATISTICS_TAGS: BPS DURATION NUMBER_OF_FRAMES NUMBER_OF_BYTES
Input #1, mov,mp4,m4a,3gp,3g2,mj2, from 'G:\Аниме\Онгоинги\!_36_Осень_2024\DreamCast\Соблазн 2,5-мерного измерения\[DC] 2-5 Jigen no Ririsa - 15_Telegram.mp4':
  Metadata:
    major_brand     : isom
    minor_version   : 512
    compatible_brands: isomiso2avc1mp41
    encoder         : Lavf61.1.100
  Duration: 00:24:09.07, start: 0.000000, bitrate: 3858 kb/s
  Stream #1:0[0x1](und): Video: h264 (High) (avc1 / 0x31637661), yuv420p(tv, bt709, progressive), 1920x1080 [SAR 1:1 DAR 16:9], 3710 kb/s, 24 fps, 24 tbr, 12288 tbn (default)
      Metadata:
        handler_name    : VideoHandler
        vendor_id       : [0][0][0][0]
        encoder         : Lavc61.3.100 h264_qsv
  Stream #1:1[0x2](und): Audio: aac (HE-AACv2) (mp4a / 0x6134706D), 48000 Hz, stereo, fltp, 144 kb/s (default)
      Metadata:
        handler_name    : SoundHandler
        vendor_id       : [0][0][0][0]
Stream mapping:
  Stream #0:0 (hevc) -> settb:default
  Stream #1:0 (h264) -> settb:default
  ssim:default -> Stream #0:0 (wrapped_avframe)
  Stream #0:1 -> #0:1 (aac (native) -> pcm_s16le (native))
Output #0, null, to 'pipe:':
  Metadata:
    COMPATIBLE_BRANDS: isomiso2avc1mp41
    MAJOR_BRAND     : isom
    MINOR_VERSION   : 512
    encoder         : Lavf61.7.100
  Stream #0:0: Video: wrapped_avframe, yuv420p10le(tv, bt709, progressive), 1920x1080 [SAR 1:1 DAR 16:9], q=2-31, 200 kb/s, 24 fps, 24 tbn
      Metadata:
        encoder         : Lavc61.19.100 wrapped_avframe
  Stream #0:1: Audio: pcm_s16le, 48000 Hz, stereo, s16, 1536 kb/s (default)
      Metadata:
        HANDLER_NAME    : SoundHandler
        VENDOR_ID       : [0][0][0][0]
        _STATISTICS_TAGS: BPS DURATION NUMBER_OF_FRAMES NUMBER_OF_BYTES
        BPS             : 193036
        DURATION        : 00:24:09.130000000
        NUMBER_OF_FRAMES: 67929
        NUMBER_OF_BYTES : 34966871
        _STATISTICS_WRITING_APP: mkvpropedit v66.0.0 ('Josie') 64-bit
        _STATISTICS_WRITING_DATE_UTC: 2025-06-04 12:16:17
        encoder         : Lavc61.19.100 pcm_s16le
frame=  181 fps=0.0 q=-0.0 size=N/A time=00:00:07.54 bitrate=N/A speed=14.5x    frame=  398 fps=387 q=-0.0 size=N/A time=00:00:16.58 bitrate=N/A speed=16.1x    frame=  609 fps=393 q=-0.0 size=N/A time=00:00:25.37 bitrate=N/A speed=16.4x    frame=  818 fps=398 q=-0.0 size=N/A time=00:00:34.08 bitrate=N/A speed=16.6x    frame= 1015 fps=394 q=-0.0 size=N/A time=00:00:42.29 bitrate=N/A speed=16.4x    frame= 1234 fps=400 q=-0.0 size=N/A time=00:00:51.41 bitrate=N/A speed=16.7x    frame= 1463 fps=406 q=-0.0 size=N/A time=00:01:00.95 bitrate=N/A speed=16.9x    frame= 1686 fps=409 q=-0.0 size=N/A time=00:01:10.25 bitrate=N/A speed=17.1x    frame= 1914 fps=412 q=-0.0 size=N/A time=00:01:19.75 bitrate=N/A speed=17.2x    frame= 2116 fps=411 q=-0.0 size=N/A time=00:01:28.16 bitrate=N/A speed=17.1x    frame= 2269 fps=400 q=-0.0 size=N/A time=00:01:34.54 bitrate=N/A speed=16.7x    frame= 2447 fps=396 q=-0.0 size=N/A time=00:01:41.95 bitrate=N/A speed=16.5x    frame= 2671 fps=398 q=-0.0 size=N/A time=00:01:51.29 bitrate=N/A speed=16.6x    frame= 2872 fps=398 q=-0.0 size=N/A time=00:01:59.66 bitrate=N/A speed=16.6x    frame= 3081 fps=398 q=-0.0 size=N/A time=00:02:08.37 bitrate=N/A speed=16.6x    frame= 3338 fps=404 q=-0.0 size=N/A time=00:02:19.08 bitrate=N/A speed=16.8x    frame= 3551 fps=404 q=-0.0 size=N/A time=00:02:27.95 bitrate=N/A speed=16.9x    frame= 3782 fps=407 q=-0.0 size=N/A time=00:02:37.58 bitrate=N/A speed=  17x    frame= 4012 fps=409 q=-0.0 size=N/A time=00:02:47.16 bitrate=N/A speed=  17x    frame= 4238 fps=411 q=-0.0 size=N/A time=00:02:56.58 bitrate=N/A speed=17.1x    frame= 4488 fps=414 q=-0.0 size=N/A time=00:03:07.00 bitrate=N/A speed=17.2x    frame= 4720 fps=415 q=-0.0 size=N/A time=00:03:16.66 bitrate=N/A speed=17.3x    frame= 4926 fps=415 q=-0.0 size=N/A time=00:03:25.25 bitrate=N/A speed=17.3x    frame= 5170 fps=417 q=-0.0 size=N/A time=00:03:35.41 bitrate=N/A speed=17.4x    frame= 5418 fps=420 q=-0.0 size=N/A time=00:03:45.75 bitrate=N/A speed=17.5x    frame= 5672 fps=423 q=-0.0 size=N/A time=00:03:56.33 bitrate=N/A speed=17.6x    frame= 5902 fps=424 q=-0.0 size=N/A time=00:04:05.91 bitrate=N/A speed=17.6x    frame= 6140 fps=425 q=-0.0 size=N/A time=00:04:15.83 bitrate=N/A speed=17.7x    frame= 6393 fps=427 q=-0.0 size=N/A time=00:04:26.37 bitrate=N/A speed=17.8x    frame= 6670 fps=431 q=-0.0 size=N/A time=00:04:37.91 bitrate=N/A speed=  18x    frame= 6942 fps=434 q=-0.0 size=N/A time=00:04:49.25 bitrate=N/A speed=18.1x    frame= 7207 fps=436 q=-0.0 size=N/A time=00:05:00.29 bitrate=N/A speed=18.2x    frame= 7438 fps=437 q=-0.0 size=N/A time=00:05:09.91 bitrate=N/A speed=18.2x    frame= 7651 fps=436 q=-0.0 size=N/A time=00:05:18.79 bitrate=N/A speed=18.2x    frame= 7904 fps=438 q=-0.0 size=N/A time=00:05:29.33 bitrate=N/A speed=18.2x    frame= 8142 fps=438 q=-0.0 size=N/A time=00:05:39.25 bitrate=N/A speed=18.3x    frame= 8398 fps=440 q=-0.0 size=N/A time=00:05:49.91 bitrate=N/A speed=18.3x    frame= 8635 fps=440 q=-0.0 size=N/A time=00:05:59.79 bitrate=N/A speed=18.3x    frame= 8885 fps=442 q=-0.0 size=N/A time=00:06:10.20 bitrate=N/A speed=18.4x    frame= 9115 fps=442 q=-0.0 size=N/A time=00:06:19.79 bitrate=N/A speed=18.4x    frame= 9385 fps=444 q=-0.0 size=N/A time=00:06:31.04 bitrate=N/A speed=18.5x    frame= 9632 fps=444 q=-0.0 size=N/A time=00:06:41.33 bitrate=N/A speed=18.5x    frame= 9851 fps=444 q=-0.0 size=N/A time=00:06:50.45 bitrate=N/A speed=18.5x    frame=10046 fps=442 q=-0.0 size=N/A time=00:06:58.58 bitrate=N/A speed=18.4x    frame=10281 fps=443 q=-0.0 size=N/A time=00:07:08.37 bitrate=N/A speed=18.4x    frame=10526 fps=443 q=-0.0 size=N/A time=00:07:18.58 bitrate=N/A speed=18.5x    frame=10749 fps=443 q=-0.0 size=N/A time=00:07:27.87 bitrate=N/A speed=18.5x    frame=10978 fps=443 q=-0.0 size=N/A time=00:07:37.41 bitrate=N/A speed=18.5x    frame=11226 fps=444 q=-0.0 size=N/A time=00:07:47.75 bitrate=N/A speed=18.5x    frame=11466 fps=444 q=-0.0 size=N/A time=00:07:57.75 bitrate=N/A speed=18.5x    frame=11723 fps=445 q=-0.0 size=N/A time=00:08:08.45 bitrate=N/A speed=18.6x    frame=11973 fps=446 q=-0.0 size=N/A time=00:08:18.87 bitrate=N/A speed=18.6x    frame=12184 fps=445 q=-0.0 size=N/A time=00:08:27.66 bitrate=N/A speed=18.6x    frame=12406 fps=445 q=-0.0 size=N/A time=00:08:36.91 bitrate=N/A speed=18.5x    frame=12656 fps=446 q=-0.0 size=N/A time=00:08:47.33 bitrate=N/A speed=18.6x    frame=12853 fps=445 q=-0.0 size=N/A time=00:08:55.54 bitrate=N/A speed=18.5x    frame=13047 fps=444 q=-0.0 size=N/A time=00:09:03.62 bitrate=N/A speed=18.5x    frame=13282 fps=444 q=-0.0 size=N/A time=00:09:13.41 bitrate=N/A speed=18.5x    frame=13532 fps=444 q=-0.0 size=N/A time=00:09:23.83 bitrate=N/A speed=18.5x    frame=13780 fps=445 q=-0.0 size=N/A time=00:09:34.16 bitrate=N/A speed=18.5x    frame=14012 fps=445 q=-0.0 size=N/A time=00:09:43.83 bitrate=N/A speed=18.5x    frame=14262 fps=446 q=-0.0 size=N/A time=00:09:54.25 bitrate=N/A speed=18.6x    frame=14503 fps=446 q=-0.0 size=N/A time=00:10:04.29 bitrate=N/A speed=18.6x    frame=14760 fps=447 q=-0.0 size=N/A time=00:10:15.00 bitrate=N/A speed=18.6x    frame=15015 fps=448 q=-0.0 size=N/A time=00:10:25.62 bitrate=N/A speed=18.6x    frame=15269 fps=448 q=-0.0 size=N/A time=00:10:36.20 bitrate=N/A speed=18.7x    frame=15508 fps=448 q=-0.0 size=N/A time=00:10:46.16 bitrate=N/A speed=18.7x    frame=15729 fps=448 q=-0.0 size=N/A time=00:10:55.37 bitrate=N/A speed=18.7x    frame=15998 fps=449 q=-0.0 size=N/A time=00:11:06.58 bitrate=N/A speed=18.7x    frame=16226 fps=449 q=-0.0 size=N/A time=00:11:16.08 bitrate=N/A speed=18.7x    frame=16476 fps=450 q=-0.0 size=N/A time=00:11:26.50 bitrate=N/A speed=18.7x    frame=16727 fps=450 q=-0.0 size=N/A time=00:11:36.95 bitrate=N/A speed=18.8x    frame=16990 fps=451 q=-0.0 size=N/A time=00:11:47.91 bitrate=N/A speed=18.8x    frame=17199 fps=450 q=-0.0 size=N/A time=00:11:56.62 bitrate=N/A speed=18.8x    frame=17449 fps=451 q=-0.0 size=N/A time=00:12:07.04 bitrate=N/A speed=18.8x    frame=17678 fps=451 q=-0.0 size=N/A time=00:12:16.58 bitrate=N/A speed=18.8x    frame=17918 fps=451 q=-0.0 size=N/A time=00:12:26.58 bitrate=N/A speed=18.8x    frame=18170 fps=452 q=-0.0 size=N/A time=00:12:37.08 bitrate=N/A speed=18.8x    frame=18442 fps=452 q=-0.0 size=N/A time=00:12:48.41 bitrate=N/A speed=18.8x    frame=18667 fps=452 q=-0.0 size=N/A time=00:12:57.79 bitrate=N/A speed=18.8x    frame=18872 fps=452 q=-0.0 size=N/A time=00:13:06.33 bitrate=N/A speed=18.8x    frame=19135 fps=452 q=-0.0 size=N/A time=00:13:17.29 bitrate=N/A speed=18.8x    frame=19397 fps=453 q=-0.0 size=N/A time=00:13:28.20 bitrate=N/A speed=18.9x    frame=19637 fps=453 q=-0.0 size=N/A time=00:13:38.20 bitrate=N/A speed=18.9x    frame=19854 fps=453 q=-0.0 size=N/A time=00:13:47.25 bitrate=N/A speed=18.9x    frame=20076 fps=452 q=-0.0 size=N/A time=00:13:56.50 bitrate=N/A speed=18.9x    frame=20318 fps=453 q=-0.0 size=N/A time=00:14:06.58 bitrate=N/A speed=18.9x    frame=20538 fps=452 q=-0.0 size=N/A time=00:14:15.75 bitrate=N/A speed=18.8x    frame=20767 fps=452 q=-0.0 size=N/A time=00:14:25.29 bitrate=N/A speed=18.8x    frame=20978 fps=452 q=-0.0 size=N/A time=00:14:34.08 bitrate=N/A speed=18.8x    frame=21220 fps=452 q=-0.0 size=N/A time=00:14:44.16 bitrate=N/A speed=18.8x    frame=21456 fps=452 q=-0.0 size=N/A time=00:14:54.00 bitrate=N/A speed=18.8x    frame=21673 fps=452 q=-0.0 size=N/A time=00:15:03.04 bitrate=N/A speed=18.8x    frame=21926 fps=452 q=-0.0 size=N/A time=00:15:13.58 bitrate=N/A speed=18.8x    frame=22179 fps=453 q=-0.0 size=N/A time=00:15:24.12 bitrate=N/A speed=18.9x    frame=22418 fps=453 q=-0.0 size=N/A time=00:15:34.08 bitrate=N/A speed=18.9x    frame=22661 fps=453 q=-0.0 size=N/A time=00:15:44.20 bitrate=N/A speed=18.9x    frame=22860 fps=452 q=-0.0 size=N/A time=00:15:52.50 bitrate=N/A speed=18.8x    frame=23074 fps=452 q=-0.0 size=N/A time=00:16:01.41 bitrate=N/A speed=18.8x    frame=23295 fps=452 q=-0.0 size=N/A time=00:16:10.62 bitrate=N/A speed=18.8x    frame=23510 fps=451 q=-0.0 size=N/A time=00:16:19.58 bitrate=N/A speed=18.8x    frame=23743 fps=451 q=-0.0 size=N/A time=00:16:29.29 bitrate=N/A speed=18.8x    frame=23992 fps=452 q=-0.0 size=N/A time=00:16:39.66 bitrate=N/A speed=18.8x    frame=24240 fps=452 q=-0.0 size=N/A time=00:16:50.04 bitrate=N/A speed=18.8x    frame=24464 fps=452 q=-0.0 size=N/A time=00:16:59.33 bitrate=N/A speed=18.8x    frame=24695 fps=452 q=-0.0 size=N/A time=00:17:08.95 bitrate=N/A speed=18.8x    frame=24932 fps=452 q=-0.0 size=N/A time=00:17:18.83 bitrate=N/A speed=18.8x    frame=25188 fps=452 q=-0.0 size=N/A time=00:17:29.50 bitrate=N/A speed=18.8x    frame=25376 fps=451 q=-0.0 size=N/A time=00:17:37.33 bitrate=N/A speed=18.8x    frame=25612 fps=451 q=-0.0 size=N/A time=00:17:47.16 bitrate=N/A speed=18.8x    frame=25875 fps=452 q=-0.0 size=N/A time=00:17:58.12 bitrate=N/A speed=18.8x    frame=26116 fps=452 q=-0.0 size=N/A time=00:18:08.16 bitrate=N/A speed=18.8x    frame=26359 fps=452 q=-0.0 size=N/A time=00:18:18.29 bitrate=N/A speed=18.8x    frame=26556 fps=452 q=-0.0 size=N/A time=00:18:26.50 bitrate=N/A speed=18.8x    frame=26769 fps=451 q=-0.0 size=N/A time=00:18:35.37 bitrate=N/A speed=18.8x    frame=27013 fps=451 q=-0.0 size=N/A time=00:18:45.54 bitrate=N/A speed=18.8x    frame=27242 fps=451 q=-0.0 size=N/A time=00:18:55.08 bitrate=N/A speed=18.8x    frame=27470 fps=451 q=-0.0 size=N/A time=00:19:04.58 bitrate=N/A speed=18.8x    frame=27738 fps=452 q=-0.0 size=N/A time=00:19:15.75 bitrate=N/A speed=18.8x    frame=28003 fps=452 q=-0.0 size=N/A time=00:19:26.79 bitrate=N/A speed=18.8x    frame=28244 fps=453 q=-0.0 size=N/A time=00:19:36.83 bitrate=N/A speed=18.9x    frame=28510 fps=453 q=-0.0 size=N/A time=00:19:47.91 bitrate=N/A speed=18.9x    frame=28757 fps=453 q=-0.0 size=N/A time=00:19:58.20 bitrate=N/A speed=18.9x    frame=29007 fps=453 q=-0.0 size=N/A time=00:20:08.62 bitrate=N/A speed=18.9x    frame=29246 fps=454 q=-0.0 size=N/A time=00:20:18.58 bitrate=N/A speed=18.9x    frame=29504 fps=454 q=-0.0 size=N/A time=00:20:29.33 bitrate=N/A speed=18.9x    frame=29755 fps=454 q=-0.0 size=N/A time=00:20:39.79 bitrate=N/A speed=18.9x    frame=30032 fps=455 q=-0.0 size=N/A time=00:20:51.33 bitrate=N/A speed=  19x    frame=30275 fps=455 q=-0.0 size=N/A time=00:21:01.45 bitrate=N/A speed=  19x    frame=30508 fps=455 q=-0.0 size=N/A time=00:21:11.16 bitrate=N/A speed=  19x    frame=30732 fps=455 q=-0.0 size=N/A time=00:21:20.50 bitrate=N/A speed=  19x    frame=30994 fps=455 q=-0.0 size=N/A time=00:21:31.41 bitrate=N/A speed=  19x    frame=31237 fps=455 q=-0.0 size=N/A time=00:21:41.54 bitrate=N/A speed=  19x    frame=31503 fps=456 q=-0.0 size=N/A time=00:21:52.62 bitrate=N/A speed=  19x    frame=31762 fps=456 q=-0.0 size=N/A time=00:22:03.41 bitrate=N/A speed=  19x    frame=32015 fps=456 q=-0.0 size=N/A time=00:22:13.95 bitrate=N/A speed=  19x    frame=32259 fps=456 q=-0.0 size=N/A time=00:22:24.12 bitrate=N/A speed=  19x    frame=32488 fps=456 q=-0.0 size=N/A time=00:22:33.66 bitrate=N/A speed=  19x    frame=32699 fps=456 q=-0.0 size=N/A time=00:22:42.45 bitrate=N/A speed=  19x    frame=32955 fps=456 q=-0.0 size=N/A time=00:22:53.12 bitrate=N/A speed=  19x    frame=33207 fps=457 q=-0.0 size=N/A time=00:23:03.62 bitrate=N/A speed=  19x    frame=33466 fps=457 q=-0.0 size=N/A time=00:23:14.41 bitrate=N/A speed=  19x    frame=33700 fps=457 q=-0.0 size=N/A time=00:23:24.16 bitrate=N/A speed=  19x    frame=33928 fps=457 q=-0.0 size=N/A time=00:23:33.66 bitrate=N/A speed=  19x    frame=34147 fps=457 q=-0.0 size=N/A time=00:23:42.79 bitrate=N/A speed=  19x    frame=34398 fps=457 q=-0.0 size=N/A time=00:23:53.25 bitrate=N/A speed=  19x    frame=34594 fps=456 q=-0.0 size=N/A time=00:24:01.41 bitrate=N/A speed=  19x    [Parsed_ssim_10 @ 0000025470de5940] SSIM Y:0.993221 (21.688155) U:0.992860 (21.463205) V:0.992859 (21.462488) All:0.993100 (21.611746)
[out#0/null @ 0000025463d14a40] video:14943KiB audio:271716KiB subtitle:0KiB other streams:0KiB global headers:0KiB muxing overhead: unknown
frame=34776 fps=457 q=-0.0 Lsize=N/A time=00:24:09.00 bitrate=N/A speed=  19x    
